name Walk6.mot
datacolumns 19
datarows 20
range 1.32000000 1.41500000
endheader

                time	   L_ground_force_vx	   L_ground_force_vy	   L_ground_force_vz	   L_ground_force_px	   L_ground_force_py	   L_ground_force_pz	   R_ground_force_vx	   R_ground_force_vy	   R_ground_force_vz	   R_ground_force_px	   R_ground_force_py	   R_ground_force_pz	   L_ground_torque_x	   L_ground_torque_y	   L_ground_torque_z	   R_ground_torque_x	   R_ground_torque_y	   R_ground_torque_z	
          1.32000000	         28.86836118	        640.00253016	         39.56481003	         -0.32013163	          0.00000000	         -0.02648720	         -0.05675424	          0.34639982	          0.00345073	          0.00018506	          0.00000000	          0.00010639	          0.00000000	         -1.67762590	          0.00000000	          0.00000000	         -0.00033128	          0.00000000	
          1.32500000	         29.90840994	        644.37903934	         40.54927481	         -0.31687422	          0.00000000	         -0.02683063	         -0.07164867	          0.43101893	          0.00447579	          0.00020600	          0.00000000	          0.00011708	          0.00000000	         -1.70619287	          0.00000000	          0.00000000	         -0.00043220	          0.00000000	
          1.33000000	         30.98362792	        649.67196477	         41.54913489	         -0.31361035	          0.00000000	         -0.02714428	         -0.08603846	          0.50981552	          0.00552225	          0.00021324	          0.00000000	          0.00011930	          0.00000000	         -1.72915846	          0.00000000	          0.00000000	         -0.00053627	          0.00000000	
          1.33500000	         32.15194945	        655.93369095	         42.55187454	         -0.31037068	          0.00000000	         -0.02742246	         -0.09786665	          0.56981476	          0.00647304	          0.00019824	          0.00000000	          0.00010805	          0.00000000	         -1.74557071	          0.00000000	          0.00000000	         -0.00063241	          0.00000000	
          1.34000000	         33.47846400	        663.17563872	         43.54128521	         -0.30718604	          0.00000000	         -0.02765949	         -0.10424158	          0.59310219	          0.00715737	          0.00015039	          0.00000000	          0.00007719	          0.00000000	         -1.75450024	          0.00000000	          0.00000000	         -0.00070434	          0.00000000	
          1.34500000	         35.02854575	        671.36658123	         44.49794268	         -0.30408653	          0.00000000	         -0.02785006	         -0.10132660	          0.55626999	          0.00734180	          0.00005723	          0.00000000	          0.00001954	          0.00000000	         -1.75518654	          0.00000000	          0.00000000	         -0.00072964	          0.00000000	
          1.35000000	         36.86324038	        680.43597464	         45.39855887	         -0.30110076	          0.00000000	         -0.02798961	         -0.08428462	          0.43023088	          0.00672395	         -0.00009511	          0.00000000	         -0.00007277	          0.00000000	         -1.74708347	          0.00000000	          0.00000000	         -0.00067911	          0.00000000	
          1.35500000	         39.03424342	        690.27914868	         46.21473810	         -0.29825423	          0.00000000	         -0.02807424	         -0.04731505	          0.18062851	          0.00493123	         -0.00032092	          0.00000000	         -0.00020773	          0.00000000	         -1.73019188	          0.00000000	          0.00000000	         -0.00051656	          0.00000000	
          1.36000000	         41.57796559	        700.76365068	         46.91287870	         -0.29556765	          0.00000000	         -0.02810186	          0.01616982	         -0.23087293	          0.00152753	         -0.00063347	          0.00000000	         -0.00039257	          0.00000000	         -1.70517577	          0.00000000	          0.00000000	         -0.00019938	          0.00000000	
          1.36500000	         44.51241926	        711.73757674	         47.45448978	         -0.29305600	          0.00000000	         -0.02807278	          0.11317265	         -0.84408681	         -0.00396850	         -0.00104273	          0.00000000	         -0.00063240	          0.00000000	         -1.67368592	          0.00000000	          0.00000000	          0.00031982	          0.00000000	
          1.37000000	         47.83683162	        723.03323108	         47.79753076	         -0.29072876	          0.00000000	         -0.02798927	          0.25047953	         -1.69622049	         -0.01204948	         -0.00155232	          0.00000000	         -0.00092839	          0.00000000	         -1.63901937	          0.00000000	          0.00000000	          0.00109001	          0.00000000	
          1.37500000	         51.53244558	        734.46905280	         47.89914137	         -0.28858939	          0.00000000	         -0.02785536	          0.43370193	         -2.81582884	         -0.02316476	         -0.00215553	          0.00000000	         -0.00127544	          0.00000000	         -1.60614919	          0.00000000	          0.00000000	          0.00215660	          0.00000000	
          1.38000000	         55.56486783	        745.85268920	         47.72104972	         -0.28663534	          0.00000000	         -0.02767474	          0.66592760	         -4.21445263	         -0.03764083	         -0.00283032	          0.00000000	         -0.00165934	          0.00000000	         -1.58141659	          0.00000000	          0.00000000	          0.00355384	          0.00000000	
          1.38500000	         59.88452242	        756.98032036	         47.24076140	         -0.28485725	          0.00000000	         -0.02745077	          0.94592802	         -5.87567783	         -0.05557235	         -0.00353351	          0.00000000	         -0.00205334	          0.00000000	         -1.57121710	          0.00000000	          0.00000000	          0.00529438	          0.00000000	
          1.39000000	         64.42985706	        767.63686425	         46.46184852	         -0.28323911	          0.00000000	         -0.02718843	          1.26589551	         -7.74152263	         -0.07668077	         -0.00419428	          0.00000000	         -0.00241450	          0.00000000	         -1.58017185	          0.00000000	          0.00000000	          0.00735561	          0.00000000	
          1.39500000	         69.13925347	        777.60334923	         45.41087582	         -0.28176079	          0.00000000	         -0.02689415	          1.60872586	         -9.69633603	         -0.10013991	         -0.00470739	          0.00000000	         -0.00267991	          0.00000000	         -1.61031267	          0.00000000	          0.00000000	          0.00966269	          0.00000000	
          1.40000000	         73.95904550	        786.66711958	         44.13018580	         -0.28040096	          0.00000000	         -0.02657470	          1.94492749	        -11.54880188	         -0.12437157	         -0.00492697	          0.00000000	         -0.00276327	          0.00000000	         -1.66116722	          0.00000000	          0.00000000	          0.01206862	          0.00000000	
          1.40500000	         78.84493990	        794.62424316	         42.67113632	         -0.27913898	          0.00000000	         -0.02623680	          2.22932930	        -13.01320798	         -0.14681941	         -0.00466175	          0.00000000	         -0.00255248	          0.00000000	         -1.73016597	          0.00000000	          0.00000000	          0.01433198	          0.00000000	
          1.41000000	         83.76284418	        801.27950001	         41.08789374	         -0.27795656	          0.00000000	         -0.02588622	          2.39788082	        -13.69187917	         -0.16371716	         -0.00367325	          0.00000000	         -0.00190899	          0.00000000	         -1.81304873	          0.00000000	          0.00000000	          0.01609388	          0.00000000	
          1.41500000	         88.69003332	        806.44848677	         39.43077221	         -0.27683897	          0.00000000	         -0.02552679	          2.36499060	        -13.06159209	         -0.16987625	         -0.00167878	          0.00000000	         -0.00067010	          0.00000000	         -1.90440747	          0.00000000	          0.00000000	          0.01685653	          0.00000000	
